<svg 
 xmlns="http://www.w3.org/2000/svg"
 xmlns:xlink="http://www.w3.org/1999/xlink"
 width="19px" height="18px" viewBox="0 0 19 18">
<path fill-rule="evenodd"  fill="rgb(255, 255, 255)"
 d="M18.254,17.251 C17.623,17.882 16.600,17.882 15.969,17.251 L9.969,11.252 L3.685,17.536 C3.054,18.167 2.031,18.167 1.399,17.536 C0.768,16.905 0.768,15.882 1.399,15.251 L7.684,8.967 L1.685,2.968 C1.054,2.337 1.054,1.313 1.685,0.683 C2.316,0.052 3.339,0.052 3.970,0.683 L9.969,6.682 L15.683,0.969 C16.314,0.338 17.337,0.338 17.968,0.969 C18.599,1.600 18.599,2.623 17.968,3.254 L12.254,8.967 L18.254,14.966 C18.885,15.597 18.885,16.620 18.254,17.251 Z"/>
</svg>