<svg xmlns="http://www.w3.org/2000/svg" viewBox="0 0 168.6 54.89"><defs><style>.cls-1{isolation:isolate;}.cls-2,.cls-3{fill:#003c8e;}.cls-3,.cls-4,.cls-7{fill-rule:evenodd;}.cls-4,.cls-5{fill:#7900b7;}.cls-6{fill:none;stroke:#003c8e;}.cls-7{fill:#214189;}</style></defs><title>Logo</title><g id="Shape_3" data-name="Shape 3" class="cls-1"><g id="Shape_3-2" data-name="Shape 3"><path class="cls-2" d="M33.47,8.36a27.16,27.16,0,0,1-1.78,19.76C31.59,28.31,40.74,18.76,33.47,8.36Z" transform="translate(-0.01 -0.24)"/></g></g><g id="Hearitup" class="cls-1"><g id="Hearitup-2" data-name="Hearitup"><path class="cls-3" d="M63.65,36.71H55.52V29h-3.8V48h3.8V39.75h8.13V48h3.82V29H63.65Zm18.29-2.89a7.84,7.84,0,0,0-3.86-.91,8.08,8.08,0,0,0-3.88.91,6.36,6.36,0,0,0-2.63,2.66,9.21,9.21,0,0,0,0,8.15,6.46,6.46,0,0,0,2.63,2.65,8.54,8.54,0,0,0,7.26.23A6.67,6.67,0,0,0,84,45.57a6.44,6.44,0,0,0,1.27-2.8h-4a2.85,2.85,0,0,1-1.11,1.75,3.63,3.63,0,0,1-2.2.65,3.45,3.45,0,0,1-2.47-1,4.06,4.06,0,0,1-1.08-2.93H85.27A7.22,7.22,0,0,0,85.4,40a7.34,7.34,0,0,0-.9-3.65A6.4,6.4,0,0,0,81.94,33.82Zm-7.6,5.8a3.85,3.85,0,0,1,1.16-2.78,3.71,3.71,0,0,1,2.58-.94,3.66,3.66,0,0,1,2.55.94,3.33,3.33,0,0,1,1,2.78Zm24.57-3.43A4.78,4.78,0,0,0,97,33.8a5.67,5.67,0,0,0-3.23-.89,6.4,6.4,0,0,0-3.39.91A6.2,6.2,0,0,0,88,36.48a9.29,9.29,0,0,0-.84,4.08A9.29,9.29,0,0,0,88,44.64a6.17,6.17,0,0,0,2.36,2.65,6.32,6.32,0,0,0,3.39.92,5.67,5.67,0,0,0,3.23-.9,4.87,4.87,0,0,0,1.91-2.41V48h3.77V33.1H98.91ZM97.8,43.7A3.78,3.78,0,0,1,95,44.87a3.72,3.72,0,0,1-2.86-1.15A4.4,4.4,0,0,1,91,40.56a4.47,4.47,0,0,1,1.07-3.18A3.73,3.73,0,0,1,95,36.22a3.78,3.78,0,0,1,2.84,1.17,4.42,4.42,0,0,1,1.11,3.17A4.38,4.38,0,0,1,97.8,43.7ZM110.35,36V33.1h-3.8V48h3.8V40.83q0-3.88,4.17-3.88h1.1V32.88a5.86,5.86,0,0,0-3.07.82A6.25,6.25,0,0,0,110.35,36Zm9.49-9.21a2.41,2.41,0,0,0-1.69.58,2,2,0,0,0,0,3,2.41,2.41,0,0,0,1.69.58,2.44,2.44,0,0,0,1.7-.58,2,2,0,0,0,0-3A2.44,2.44,0,0,0,119.84,26.74ZM117.93,48h3.8V33.1h-3.8Zm13.73-3.26a2,2,0,0,1-1.45-.43,2.09,2.09,0,0,1-.44-1.51V36.3h3.34V33.1h-3.34V29.4H126v3.7h-2.07v3.2H126v6.47a5.25,5.25,0,0,0,1.33,4A5.51,5.51,0,0,0,131.15,48h2V44.76Z" transform="translate(-0.01 -0.24)"/></g></g><g id="Hearitup-3" data-name="Hearitup" class="cls-1"><g id="Hearitup-4" data-name="Hearitup"><path class="cls-4" d="M146,41a4.3,4.3,0,0,1-1,3,3.39,3.39,0,0,1-2.61,1.05,3.22,3.22,0,0,1-2.48-1,3.88,3.88,0,0,1-.91-2.76V29.1h-3.77V41.77a6.82,6.82,0,0,0,1.53,4.74,5.26,5.26,0,0,0,4.12,1.7,5.8,5.8,0,0,0,3.14-.85A4.77,4.77,0,0,0,146,45v3h3.79V19.1H146Zm21.77-4.54a6.18,6.18,0,0,0-2.35-2.66,6.44,6.44,0,0,0-3.4-.91,5.58,5.58,0,0,0-3.21.89,4.87,4.87,0,0,0-1.9,2.39V33.1h-3.8v22h3.8V44.9a5,5,0,0,0,1.9,2.41,5.58,5.58,0,0,0,3.21.9,6.35,6.35,0,0,0,3.4-.92,6.15,6.15,0,0,0,2.35-2.65,9.15,9.15,0,0,0,.85-4.08A9.15,9.15,0,0,0,167.76,36.48Zm-4.08,7.24a4.07,4.07,0,0,1-5.69,0,4.34,4.34,0,0,1-1.12-3.14A4.38,4.38,0,0,1,158,37.39a4.06,4.06,0,0,1,5.69,0,4.47,4.47,0,0,1,1.08,3.18A4.4,4.4,0,0,1,163.68,43.72Z" transform="translate(-0.01 -0.24)"/></g></g><g id="Shape_1" data-name="Shape 1" class="cls-1"><g id="Shape_1-2" data-name="Shape 1"><path class="cls-3" d="M41,12.63C41,12.39,38-.5,23.45.28,23.18.29,9.33,0,.07,24.53c-.09.22-.92,9.22,7.13,7.41,0,0,8-19.86,19.81-27.4a10.46,10.46,0,0,0,0-1.12S35.66,5,37.48,12.63c.13.56,3.41,10.58-8,22-.05,0-5.44,6.11-6.45,9.88-.09.3-1.58,6-6.68,4.94a6.77,6.77,0,0,1-6-6.06A18.89,18.89,0,0,0,7,43.16s2.9,12.56,14,9c1.14-.36,3.85-2.62,4.9-6.51,0-.06,3.05-6.3,6.9-9.88C32.92,35.64,43.49,23.5,41,12.63ZM12.39,15.19c-.1.32.12-4.06-3.62-1.74C8.77,13.45,15.14,5.86,12.39,15.19Z" transform="translate(-0.01 -0.24)"/></g></g><g id="Shape_2" data-name="Shape 2" class="cls-1"><g id="Shape_2-2" data-name="Shape 2"><path class="cls-5" d="M26.79,5.67s-10.91,6-18.48,25.82c-.1.26-2.05,2.77-6.46.22a2.71,2.71,0,0,0,2,3.14c.31.12,2.38-.63,4.45.23.22.09,6.13,3.19,8.46-6.29.07-.28-.67-9.39,5.34-15.49C22.14,13.27,26.94,7.84,26.79,5.67Z" transform="translate(-0.01 -0.24)"/></g></g><g id="Rounded_Rectangle_1" data-name="Rounded Rectangle 1" class="cls-1"><g id="Rounded_Rectangle_1-2" data-name="Rounded Rectangle 1"><path class="cls-2" d="M8.74,41.5a1.21,1.21,0,0,0-1.2,1.21v1.38a1.2,1.2,0,1,0,2.4,0V42.71A1.21,1.21,0,0,0,8.74,41.5Z" transform="translate(-0.01 -0.24)"/></g></g><g id="Shape_4" data-name="Shape 4" class="cls-1"><path class="cls-6" d="M8.64,42.07a11.68,11.68,0,0,1,3-3C21.6,33.69,25.77,45,25.77,45a13.32,13.32,0,0,0,2.52,4.46,3.77,3.77,0,0,0,5.41.23l1.2-1.14" transform="translate(-0.01 -0.24)"/></g><g id="Shape_3-3" data-name="Shape 3" class="cls-1"><g id="Shape_3-4" data-name="Shape 3"><path class="cls-7" d="M39.91,39.5a9.83,9.83,0,0,1,0-1.51l-.28-.25-.16-1s-.36-1.36-1.84-.51c-.1.06-.86.85-.86.85l-.93.92-.13.38-1,1S30,42.56,33,46.25A8.07,8.07,0,0,1,32.39,48s3.57,2.4,4.72,1.93c.13,0,1.46-1.31,1.46-1.31l.17-1.34S43,44.76,39.91,39.5Zm-5.68,3.42c-.93.36-1.23-.86-1.17-.91a2.87,2.87,0,0,1,2-.57C35.64,42.39,34.32,42.89,34.23,42.92Zm4.6-.54s1.53,1.2,1.52,1.22C39.18,45,38.83,42.38,38.83,42.38Z" transform="translate(-0.01 -0.24)"/></g></g><g id="Shape_6" data-name="Shape 6" class="cls-1"><g id="Shape_6-2" data-name="Shape 6"><path class="cls-5" d="M33.1,46.37,32.39,48s4.24,2.68,4.65,1.87c0-.07,1.53-1.25,1.53-1.25l.17-1.34S35.38,48.25,33.1,46.37Z" transform="translate(-0.01 -0.24)"/></g></g></svg>