<svg 
 xmlns="http://www.w3.org/2000/svg"
 xmlns:xlink="http://www.w3.org/1999/xlink"
 width="42px" height="52px" viewBox="0 0 42 52">
<path fill-rule="evenodd"  stroke-width="2px" stroke="rgb(53, 53, 53)" fill-opacity="0" fill="rgb(121, 0, 183)"
 d="M29.490,26.674 C33.490,18.935 30.867,11.308 30.867,11.308 C36.488,19.398 29.414,26.821 29.490,26.674 ZM30.351,32.611 C27.943,34.861 25.955,38.459 25.272,39.782 L30.471,40.803 C30.470,40.795 30.473,40.778 30.470,40.774 C28.194,37.903 31.810,35.421 31.810,35.421 L32.578,34.657 L32.676,34.359 L33.392,33.646 C33.392,33.646 33.984,33.027 34.058,32.984 C35.204,32.320 35.482,33.378 35.482,33.378 L35.605,34.160 L35.819,34.349 C35.819,34.349 35.779,35.410 35.847,35.528 C38.215,39.619 34.942,41.554 34.942,41.554 L34.809,42.591 C34.809,42.591 33.778,43.572 33.681,43.613 C33.644,43.628 33.595,43.629 33.552,43.636 C33.380,43.743 32.993,43.647 32.532,43.460 C31.944,43.242 31.288,42.886 30.794,42.593 C29.119,46.231 27.194,42.833 27.138,42.732 C26.536,41.628 25.884,40.704 25.203,39.917 C25.087,40.144 25.019,40.287 25.016,40.294 C23.752,43.938 21.441,45.177 21.230,45.358 C20.000,46.412 17.493,45.889 17.444,45.882 C10.311,44.747 10.389,38.373 10.389,38.373 C10.389,38.373 10.515,38.375 10.690,38.378 L10.690,38.020 C10.690,37.522 11.073,37.126 11.554,37.091 L11.486,37.077 C11.486,37.077 17.828,34.042 23.284,38.117 C24.643,35.274 27.736,31.771 27.769,31.738 C36.598,22.858 34.069,15.062 33.964,14.625 C32.557,8.714 25.876,7.466 25.876,7.466 C25.876,7.466 25.902,8.322 25.876,8.339 C16.714,14.201 10.591,29.636 10.561,29.642 C4.347,31.053 4.988,24.056 5.054,23.880 C12.209,4.806 22.915,5.033 23.123,5.021 C34.398,4.419 36.676,14.440 36.718,14.625 C38.614,23.083 30.444,32.524 30.351,32.611 ZM36.184,38.710 C36.195,38.698 35.009,37.768 35.009,37.768 C35.009,37.768 35.283,39.768 36.184,38.710 ZM32.110,37.032 C32.110,37.032 31.260,36.912 30.549,37.479 C30.501,37.518 30.736,38.466 31.457,38.185 C31.526,38.158 32.547,37.771 32.110,37.032 ZM12.027,37.184 C12.332,37.338 12.547,37.650 12.547,38.020 L12.547,38.456 C12.796,38.479 12.966,38.509 12.970,38.548 C13.475,42.832 17.418,43.223 17.616,43.262 C21.565,44.056 22.716,39.658 22.779,39.421 C22.789,39.382 22.807,39.340 22.818,39.301 L12.027,37.184 ZM11.776,15.264 C14.667,13.459 14.501,16.866 14.574,16.615 C16.698,9.359 11.776,15.264 11.776,15.264 ZM11.421,29.293 C17.274,13.863 25.704,9.212 25.704,9.212 C25.819,10.900 22.112,15.127 22.091,15.149 C17.439,19.889 18.015,26.975 17.961,27.198 C16.157,34.565 11.590,32.158 11.421,32.087 C9.823,31.420 8.221,32.003 7.980,31.913 C6.031,31.180 6.404,29.452 6.431,29.468 C9.837,31.448 11.344,29.498 11.421,29.293 Z"/>
</svg>