<svg 
 xmlns="http://www.w3.org/2000/svg"
 xmlns:xlink="http://www.w3.org/1999/xlink"
 width="98px" height="72px" viewBox="0 0 98 78">
<path fill-rule="evenodd"  fill="rgb(255, 255, 255)"
 d="M97.971,40.707 C98.128,41.891 97.692,42.908 96.445,43.153 C94.965,43.444 94.245,42.460 94.039,41.166 C93.666,38.820 93.215,36.503 92.352,34.282 C90.994,30.787 88.729,28.209 85.054,27.067 C83.914,26.713 82.684,26.437 82.492,24.979 C82.256,23.184 83.748,23.012 84.896,22.439 C89.477,20.158 91.508,15.735 90.271,10.897 C89.255,6.920 85.223,3.854 81.042,3.881 C76.319,3.910 72.595,7.005 71.481,11.836 C71.375,12.298 71.270,12.765 71.230,13.234 C71.114,14.573 70.601,15.650 69.083,15.425 C67.608,15.205 67.470,13.989 67.475,12.697 C67.496,6.653 72.621,1.009 78.942,0.156 C79.644,0.061 80.358,0.058 81.398,-0.010 C86.643,0.194 90.776,2.653 93.230,7.735 C95.692,12.836 95.123,17.764 91.587,22.023 C89.843,24.122 90.051,24.947 92.011,26.649 C96.196,30.286 97.274,35.472 97.971,40.707 ZM80.375,30.911 C80.418,34.290 79.387,37.341 77.116,39.735 C75.695,41.232 75.661,41.884 77.273,43.260 C81.711,47.049 83.032,52.373 83.753,57.879 C83.917,59.135 83.601,60.322 82.028,60.472 C80.680,60.601 80.126,59.647 79.878,58.544 C79.514,56.924 79.339,55.260 78.942,53.650 C77.824,49.111 75.378,45.672 70.762,44.126 C69.625,43.746 68.395,43.441 68.395,41.892 C68.395,40.545 69.513,40.263 70.459,39.757 C76.282,36.645 78.203,30.813 75.100,25.787 C71.888,20.585 65.742,19.684 60.309,23.669 C59.214,24.472 58.146,25.491 56.924,24.162 C55.530,22.644 56.843,21.546 57.849,20.568 C61.419,17.100 67.486,16.206 72.477,18.458 C77.817,20.867 80.168,25.225 80.375,30.911 ZM60.785,15.429 C59.113,15.587 58.805,14.137 58.532,12.780 C57.370,6.995 54.120,3.912 49.184,3.833 C44.172,3.752 40.596,7.035 39.445,12.808 C39.179,14.142 38.908,15.628 37.187,15.417 C35.271,15.181 35.361,13.575 35.497,12.088 C36.130,5.178 41.866,0.063 49.032,0.032 C56.102,0.000 61.646,5.444 62.192,12.315 C62.309,13.790 62.731,15.245 60.785,15.429 ZM39.335,20.522 C40.471,21.467 41.549,22.667 40.318,24.127 C39.183,25.473 37.980,24.595 36.936,23.704 C35.077,22.119 33.017,21.049 30.695,21.202 C26.154,21.161 22.311,23.916 21.072,27.949 C19.817,32.030 21.404,36.415 25.052,38.825 C25.837,39.343 26.747,39.673 27.533,40.189 C29.577,41.531 29.416,43.064 27.248,43.767 C20.611,45.923 18.342,51.010 17.564,57.295 C17.378,58.799 17.192,60.716 15.034,60.426 C12.808,60.126 13.266,58.192 13.529,56.737 C14.487,51.422 16.163,46.133 20.731,42.631 C22.573,41.218 20.522,40.708 19.788,39.789 C13.143,31.456 17.433,19.626 27.742,17.450 C32.071,16.536 35.955,17.710 39.335,20.522 ZM28.875,15.363 C26.580,15.695 26.914,13.557 26.625,12.116 C25.791,7.964 22.619,4.700 18.633,3.987 C14.550,3.256 11.447,5.019 9.068,8.159 C6.877,11.051 6.949,15.561 8.967,18.927 C10.067,20.762 11.738,21.834 13.607,22.645 C14.637,23.092 15.591,23.488 15.529,24.842 C15.477,25.995 14.664,26.549 13.737,26.799 C7.161,28.580 5.288,33.829 4.198,39.663 C3.903,41.239 4.159,43.496 1.705,43.094 C-0.623,42.712 0.037,40.698 0.282,39.037 C1.048,33.846 2.665,29.051 6.989,25.727 C8.973,24.201 7.483,23.488 6.639,22.444 C0.311,14.615 3.564,3.523 13.075,0.590 C14.413,0.177 15.855,0.098 16.358,0.014 C24.076,0.195 29.502,4.820 30.354,11.309 C30.556,12.843 31.314,15.011 28.875,15.363 ZM37.673,55.436 C39.721,53.612 39.518,52.695 37.901,50.753 C34.086,46.171 34.091,39.454 37.516,34.507 C40.814,29.743 47.354,27.656 53.026,29.558 C58.686,31.457 62.128,36.451 62.044,42.649 C62.134,46.015 61.088,49.036 58.775,51.424 C57.279,52.970 57.594,53.683 59.102,54.982 C63.402,58.686 64.927,63.768 65.450,69.220 C65.562,70.392 65.681,71.747 64.007,71.979 C62.287,72.217 61.780,71.065 61.532,69.638 C61.106,67.191 60.724,64.746 59.707,62.428 C58.339,59.311 56.098,57.205 52.968,55.971 C51.800,55.511 50.179,55.436 50.123,53.745 C50.070,52.141 51.487,51.812 52.685,51.215 C57.706,48.715 59.659,43.119 57.319,38.278 C55.088,33.665 49.592,31.436 45.010,33.479 C41.544,35.026 39.286,37.662 39.011,41.630 C38.708,46.010 40.631,49.196 44.450,51.210 C45.594,51.814 47.095,51.997 47.011,53.697 C46.927,55.383 45.422,55.516 44.219,55.971 C39.516,57.752 37.358,61.558 36.257,66.160 C35.954,67.427 35.724,68.719 35.565,70.012 C35.385,71.478 34.597,72.170 33.179,71.962 C31.762,71.754 31.710,70.591 31.778,69.493 C32.114,64.122 33.565,59.094 37.673,55.436 Z"/>
</svg>