<svg 
 xmlns="http://www.w3.org/2000/svg"
 xmlns:xlink="http://www.w3.org/1999/xlink"
 width="81px" height="70px" viewBox="0 0 81 70">
<path fill-rule="evenodd"  fill="rgb(255, 255, 255)"
 d="M77.400,40.908 L63.450,40.908 L63.450,36.363 C63.444,35.103 62.446,34.095 61.200,34.090 L41.850,34.090 L41.850,30.000 L57.600,30.000 C59.579,30.000 61.200,28.363 61.200,26.363 L61.200,3.636 C61.200,1.636 59.579,-0.001 57.600,-0.001 L23.400,-0.001 C21.420,-0.001 19.800,1.636 19.800,3.636 L19.800,26.363 C19.800,28.363 21.420,30.000 23.400,30.000 L39.150,30.000 L39.150,34.090 L19.800,34.090 C18.553,34.095 17.555,35.103 17.550,36.363 L17.550,40.908 L3.600,40.908 C1.620,40.908 -0.000,42.545 -0.000,44.545 L-0.000,66.363 C-0.000,68.363 1.620,69.999 3.600,69.999 L34.200,69.999 C36.179,69.999 37.800,68.363 37.800,66.363 L37.800,44.545 C37.800,42.545 36.179,40.908 34.200,40.908 L20.250,40.908 L20.250,36.818 L60.750,36.818 L60.750,40.908 L46.800,40.908 C44.820,40.908 43.200,42.545 43.200,44.545 L43.200,66.363 C43.200,68.363 44.820,69.999 46.800,69.999 L77.400,69.999 C79.379,69.999 81.000,68.363 81.000,66.363 L81.000,44.545 C81.000,42.545 79.379,40.908 77.400,40.908 ZM35.100,66.363 L35.100,66.363 C35.100,66.856 34.689,67.272 34.200,67.272 L3.600,67.272 C3.113,67.272 2.700,66.856 2.700,66.363 L2.700,50.019 L35.100,50.019 L35.100,66.363 ZM34.200,43.636 L34.200,43.636 C34.688,43.636 35.100,44.052 35.100,44.545 L35.100,47.292 L2.700,47.292 L2.700,44.545 C2.700,44.052 3.113,43.636 3.600,43.636 L34.200,43.636 L34.200,43.636 ZM22.500,3.636 C22.500,3.143 22.913,2.726 23.400,2.726 L57.600,2.726 C58.089,2.726 58.500,3.143 58.500,3.636 L58.500,6.363 L22.500,6.363 L22.500,3.636 ZM23.400,27.272 C22.913,27.272 22.500,26.855 22.500,26.362 L22.500,9.090 L58.500,9.090 L58.500,26.363 C58.500,26.856 58.089,27.272 57.600,27.272 L23.400,27.272 L23.400,27.272 ZM45.900,44.545 C45.900,44.052 46.313,43.636 46.800,43.636 L77.400,43.636 C77.889,43.636 78.300,44.052 78.300,44.545 L78.300,47.292 L45.900,47.292 L45.900,44.545 ZM78.300,66.363 C78.300,66.856 77.889,67.272 77.400,67.272 L46.800,67.272 C46.313,67.272 45.900,66.856 45.900,66.363 L45.900,50.019 L78.300,50.019 L78.300,66.363 L78.300,66.363 Z"/>
</svg>