<svg 
 xmlns="http://www.w3.org/2000/svg"
 xmlns:xlink="http://www.w3.org/1999/xlink"
 width="84px" height="80px">
<path fill-rule="evenodd"  fill="rgb(255, 255, 255)"
 d="M78.680,65.004 C78.187,65.758 77.171,65.972 76.410,65.483 C75.650,64.993 75.434,63.985 75.928,63.231 C83.548,51.589 81.886,36.003 71.976,26.171 C60.333,14.620 41.389,14.620 29.747,26.171 C18.104,37.722 18.104,56.517 29.747,68.068 C39.670,77.913 55.393,79.553 67.133,71.968 C67.892,71.477 68.909,71.690 69.403,72.444 C69.898,73.197 69.683,74.206 68.924,74.696 C63.560,78.161 57.239,79.999 50.837,79.999 C49.754,79.999 48.669,79.947 47.585,79.841 C39.991,79.096 32.832,75.733 27.427,70.370 C24.004,66.975 21.489,63.016 19.880,58.791 L8.203,58.791 C7.297,58.791 6.563,58.063 6.563,57.163 C6.563,56.265 7.297,55.536 8.203,55.536 L18.833,55.536 C18.288,53.483 17.947,51.386 17.808,49.279 L10.500,49.279 C9.594,49.279 8.860,48.551 8.860,47.651 C8.860,46.752 9.594,46.024 10.500,46.024 L17.756,46.024 C17.826,43.922 18.097,41.826 18.570,39.767 L1.641,39.767 C0.735,39.767 0.000,39.038 0.000,38.139 C0.000,37.240 0.735,36.511 1.641,36.511 L19.497,36.511 C20.235,34.352 21.205,32.253 22.408,30.255 L12.825,30.255 C11.919,30.255 11.184,29.526 11.184,28.627 C11.184,27.728 11.919,26.999 12.825,26.999 L24.516,26.999 C24.558,26.999 24.600,27.002 24.641,27.005 C25.491,25.916 26.420,24.868 27.427,23.869 C32.028,19.303 37.658,16.365 43.584,15.051 L43.584,10.904 C41.156,10.305 39.352,8.125 39.352,5.534 C39.352,2.482 41.854,-0.001 44.930,-0.001 L56.743,-0.001 C59.819,-0.001 62.321,2.482 62.321,5.534 C62.321,8.125 60.517,10.305 58.089,10.904 L58.089,15.040 C64.033,16.348 69.682,19.290 74.297,23.869 C79.697,29.227 83.086,36.322 83.840,43.849 C84.584,51.271 82.751,58.784 78.680,65.004 ZM46.865,14.492 C49.502,14.177 52.171,14.174 54.808,14.486 L54.808,11.068 L46.865,11.068 L46.865,14.492 ZM59.040,5.534 C59.040,4.277 58.010,3.255 56.743,3.255 L44.930,3.255 C43.664,3.255 42.633,4.277 42.633,5.534 C42.633,6.790 43.664,7.812 44.930,7.812 L45.224,7.812 L56.449,7.812 L56.743,7.812 C58.010,7.812 59.040,6.790 59.040,5.534 ZM1.641,55.535 C2.072,55.535 2.496,55.709 2.801,56.012 C3.106,56.315 3.281,56.735 3.281,57.163 C3.281,57.591 3.106,58.011 2.801,58.314 C2.496,58.617 2.072,58.791 1.641,58.791 C1.209,58.791 0.786,58.617 0.481,58.314 C0.175,58.011 0.000,57.593 0.000,57.163 C0.000,56.735 0.176,56.315 0.481,56.012 C0.786,55.709 1.209,55.535 1.641,55.535 ZM50.862,72.371 C36.827,72.371 25.410,61.043 25.410,47.119 C25.410,33.195 36.827,21.868 50.862,21.868 C64.896,21.868 76.313,33.195 76.313,47.119 C76.313,61.043 64.896,72.371 50.862,72.371 ZM50.862,25.123 C38.637,25.123 28.691,34.990 28.691,47.119 C28.691,59.248 38.637,69.115 50.862,69.115 C63.087,69.115 73.032,59.248 73.032,47.119 C73.032,34.990 63.087,25.123 50.862,25.123 ZM65.243,47.139 C65.243,46.240 65.978,45.511 66.884,45.511 L68.404,45.511 C69.310,45.511 70.044,46.240 70.044,47.139 C70.044,48.038 69.310,48.767 68.404,48.767 L66.884,48.767 C65.978,48.767 65.243,48.038 65.243,47.139 ZM63.322,37.059 L55.434,44.885 C55.770,45.559 55.960,46.317 55.960,47.119 C55.960,49.908 53.673,52.177 50.862,52.177 C48.050,52.177 45.763,49.908 45.763,47.119 C45.763,46.317 45.953,45.559 46.289,44.885 L42.652,41.277 C42.012,40.641 42.012,39.610 42.652,38.974 C43.293,38.339 44.332,38.339 44.973,38.974 L48.610,42.583 C49.289,42.249 50.053,42.061 50.862,42.061 C51.670,42.061 52.434,42.249 53.114,42.583 L61.240,34.520 C61.881,33.885 62.920,33.885 63.560,34.520 C64.201,35.156 64.201,36.187 63.560,36.823 L63.322,37.059 ZM50.862,45.317 C49.860,45.317 49.045,46.125 49.045,47.119 C49.045,48.113 49.860,48.922 50.862,48.922 C51.863,48.922 52.678,48.113 52.678,47.119 C52.678,46.125 51.863,45.317 50.862,45.317 ZM50.882,32.851 C49.976,32.851 49.241,32.122 49.241,31.223 L49.241,29.715 C49.241,28.816 49.976,28.087 50.882,28.087 C51.788,28.087 52.522,28.816 52.522,29.715 L52.522,31.223 C52.522,32.122 51.788,32.851 50.882,32.851 ZM34.839,48.727 L33.320,48.727 C32.413,48.727 31.679,47.998 31.679,47.100 C31.679,46.200 32.413,45.471 33.320,45.471 L34.839,45.471 C35.745,45.471 36.480,46.200 36.480,47.100 C36.480,47.998 35.745,48.727 34.839,48.727 ZM50.842,61.388 C51.748,61.388 52.482,62.116 52.482,63.015 L52.482,64.523 C52.482,65.422 51.748,66.151 50.842,66.151 C49.936,66.151 49.201,65.422 49.201,64.523 L49.201,63.015 C49.201,62.116 49.936,61.388 50.842,61.388 ZM73.137,67.590 C73.568,67.590 73.990,67.765 74.297,68.068 C74.602,68.370 74.778,68.790 74.778,69.218 C74.778,69.646 74.602,70.066 74.297,70.369 C73.990,70.673 73.569,70.846 73.137,70.846 C72.704,70.846 72.282,70.673 71.977,70.369 C71.670,70.066 71.496,69.646 71.496,69.218 C71.496,68.790 71.670,68.370 71.977,68.068 C72.282,67.765 72.704,67.590 73.137,67.590 Z"/>
</svg>