<svg 
 xmlns="http://www.w3.org/2000/svg"
 xmlns:xlink="http://www.w3.org/1999/xlink"
 width="81px" height="70px" viewBox="0 0 81 70">
<path fill-rule="evenodd"  fill="rgb(255, 255, 255)"
 d="M74.250,69.999 L6.750,69.999 C3.024,69.994 0.004,66.984 -0.000,63.268 L-0.000,61.923 C-0.000,60.435 1.209,59.230 2.700,59.230 L2.700,20.191 C2.704,16.476 5.723,13.465 9.450,13.461 L9.450,12.114 C9.450,9.884 11.263,8.076 13.500,8.076 L31.050,8.076 L31.050,4.038 C31.050,1.807 32.863,-0.001 35.100,-0.001 L67.500,-0.001 C69.737,-0.001 71.550,1.807 71.550,4.038 L71.550,13.461 C75.276,13.465 78.295,16.476 78.300,20.191 L78.300,59.230 C79.791,59.230 81.000,60.435 81.000,61.923 L81.000,63.268 C80.995,66.984 77.976,69.994 74.250,69.999 ZM13.500,10.768 C12.754,10.768 12.150,11.371 12.150,12.114 L12.150,33.653 C12.150,34.396 12.754,34.999 13.500,34.999 L24.300,34.999 C24.658,34.999 25.001,35.141 25.254,35.394 L31.050,41.173 L31.050,36.345 C31.050,35.602 31.654,34.999 32.400,34.999 L45.900,34.999 C46.645,34.999 47.250,34.396 47.250,33.653 L47.250,12.114 C47.250,11.371 46.645,10.768 45.900,10.768 L13.500,10.768 ZM68.850,4.038 C68.850,3.295 68.245,2.692 67.500,2.692 L35.100,2.692 C34.354,2.692 33.750,3.295 33.750,4.038 L33.750,8.076 L45.900,8.076 C48.137,8.076 49.950,9.884 49.950,12.114 L49.950,26.923 L54.000,26.923 C54.745,26.923 55.350,27.525 55.350,28.269 L55.350,33.096 L61.145,27.317 C61.398,27.064 61.742,26.923 62.100,26.923 L67.500,26.923 C68.245,26.923 68.850,26.320 68.850,25.576 L68.850,4.038 ZM75.600,20.191 C75.600,17.961 73.786,16.153 71.550,16.153 L71.550,25.576 C71.550,27.806 69.737,29.614 67.500,29.614 L62.659,29.614 L54.954,37.297 C54.701,37.549 54.358,37.692 54.000,37.692 C53.823,37.692 53.647,37.657 53.483,37.589 C52.979,37.381 52.650,36.890 52.650,36.345 L52.650,29.614 L49.950,29.614 L49.950,33.653 C49.950,35.883 48.137,37.692 45.900,37.692 L33.750,37.692 L33.750,44.422 C33.750,44.967 33.421,45.457 32.917,45.666 C32.753,45.734 32.577,45.769 32.400,45.768 C32.042,45.768 31.698,45.626 31.445,45.374 L23.741,37.692 L13.500,37.692 C11.263,37.692 9.450,35.883 9.450,33.653 L9.450,16.153 C7.213,16.153 5.400,17.961 5.400,20.191 L5.400,59.230 L75.600,59.230 L75.600,20.191 ZM78.300,61.923 L47.250,61.923 C47.250,63.409 46.041,64.615 44.550,64.615 L36.450,64.615 C34.959,64.615 33.750,63.409 33.750,61.923 L2.700,61.923 L2.700,63.268 C2.700,65.499 4.513,67.307 6.750,67.307 L74.250,67.307 C76.487,67.307 78.300,65.499 78.300,63.268 L78.300,61.923 ZM12.150,53.846 L70.200,53.846 L70.200,40.384 L72.900,40.384 L72.900,53.846 C72.900,55.332 71.691,56.538 70.200,56.538 L12.150,56.538 C10.659,56.538 9.450,55.332 9.450,53.846 L9.450,40.384 L12.150,40.384 L12.150,53.846 ZM52.650,18.845 L63.450,18.845 L63.450,21.537 L52.650,21.537 L52.650,18.845 ZM52.650,13.461 L63.450,13.461 L63.450,16.153 L52.650,16.153 L52.650,13.461 ZM52.650,8.076 L63.450,8.076 L63.450,10.768 L52.650,10.768 L52.650,8.076 ZM17.550,26.923 L41.850,26.923 L41.850,29.614 L17.550,29.614 L17.550,26.923 ZM17.550,21.537 L41.850,21.537 L41.850,24.230 L17.550,24.230 L17.550,21.537 ZM17.550,16.153 L41.850,16.153 L41.850,18.845 L17.550,18.845 L17.550,16.153 Z"/>
</svg>