<?xml version="1.0" encoding="utf-8"?>
<!-- Generator: Adobe Illustrator 23.0.0, SVG Export Plug-In . SVG Version: 6.00 Build 0)  -->
<svg version="1.1" id="Layer_1" xmlns="http://www.w3.org/2000/svg" xmlns:xlink="http://www.w3.org/1999/xlink" x="0px" y="0px"
	 viewBox="0 0 27 32.7" style="enable-background:new 0 0 27 32.7;" xml:space="preserve">
<style type="text/css">
	.st0{fill:#003C8E;}
	.st1{fill-rule:evenodd;clip-rule:evenodd;fill:#003C8E;}
	.st2{fill:#7900B7;}
	.st3{fill:none;stroke:#003C8E;stroke-width:0.6077;}
	.st4{fill-rule:evenodd;clip-rule:evenodd;fill:#214189;}
</style>
<title>Logo</title>
<g id="Shape_3">
	<g id="Shape_3-2">
		<path class="st0" d="M20.3,4.9c1.2,4,0.8,8.3-1.1,12C19.2,17.1,24.7,11.3,20.3,4.9z"/>
	</g>
</g>
<g id="Shape_1">
	<g id="Shape_1-2">
		<path class="st1" d="M24.9,7.5c0-0.1-1.8-8-10.7-7.5C14.1,0,5.7-0.1,0,14.8c-0.1,0.1-0.6,5.6,4.3,4.5c0,0,4.9-12.1,12-16.7
			c0-0.2,0-0.5,0-0.7c0,0,5.3,1,6.4,5.6c0.1,0.3,2.1,6.4-4.9,13.4c0,0-3.3,3.7-3.9,6c-0.1,0.2-1,3.6-4.1,3c-1.9-0.2-3.5-1.7-3.6-3.7
			c-0.7-0.1-1.4-0.2-2-0.1c0,0,1.8,7.6,8.5,5.5c0.7-0.2,2.3-1.6,3-4c0,0,1.9-3.8,4.2-6C20,21.5,26.4,14.1,24.9,7.5z M7.5,9.1
			C7.5,9.3,7.6,6.6,5.3,8C5.3,8,9.2,3.4,7.5,9.1z"/>
	</g>
</g>
<g id="Shape_2">
	<g id="Shape_2-2">
		<path class="st2" d="M16.3,3.3c0,0-6.6,3.6-11.2,15.7c-0.1,0.2-1.2,1.7-3.9,0.1C1,20,1.5,20.8,2.3,21c0.2,0.1,1.4-0.4,2.7,0.1
			c0.1,0.1,3.7,1.9,5.1-3.8c0-0.2-0.4-5.7,3.2-9.4C13.4,7.9,16.4,4.6,16.3,3.3z"/>
	</g>
</g>
<g id="Rounded_Rectangle_1">
	<g id="Rounded_Rectangle_1-2">
		<path class="st0" d="M5.3,25.1c-0.4,0-0.7,0.3-0.7,0.7v0.8c0,0.4,0.3,0.7,0.7,0.7c0.4,0,0.7-0.3,0.7-0.7v-0.8
			C6,25.4,5.7,25.1,5.3,25.1z"/>
	</g>
</g>
<g id="Shape_4">
	<path class="st3" d="M5.2,25.4c0.5-0.7,1.1-1.3,1.8-1.8c6.1-3.3,8.6,3.6,8.6,3.6c0.3,1,0.9,1.9,1.5,2.7c0.8,0.9,2.3,1,3.2,0.2
		c0,0,0,0,0.1,0l0.7-0.7"/>
</g>
<g id="Shape_3-3">
	<g id="Shape_3-4">
		<path class="st4" d="M24.2,23.9c0-0.3,0-0.6,0-0.9l-0.2-0.2L24,22.2c0,0-0.2-0.8-1.1-0.3c-0.1,0-0.5,0.5-0.5,0.5l-0.6,0.6
			l-0.1,0.2l-0.6,0.6c0,0-2.9,1.9-1,4.2c-0.1,0.4-0.2,0.7-0.4,1.1c0,0,2.2,1.5,2.9,1.2c0.1,0,0.9-0.8,0.9-0.8l0.1-0.8
			C23.5,28.6,26.1,27.1,24.2,23.9z M20.8,25.9c-0.6,0.2-0.7-0.5-0.7-0.6c0.3-0.3,0.8-0.4,1.2-0.3C21.7,25.6,20.8,25.9,20.8,25.9z
			 M23.6,25.6c0,0,0.9,0.7,0.9,0.7C23.8,27.2,23.6,25.6,23.6,25.6z"/>
	</g>
</g>
<g id="Shape_6">
	<g id="Shape_6-2">
		<path class="st2" d="M20.1,28l-0.4,1c0,0,2.6,1.6,2.8,1.1c0,0,0.9-0.8,0.9-0.8l0.1-0.8C23.5,28.6,21.5,29.2,20.1,28z"/>
	</g>
</g>
</svg>
