<svg 
 xmlns="http://www.w3.org/2000/svg"
 xmlns:xlink="http://www.w3.org/1999/xlink"
 width="34px" height="31px" viewBox="0 0 34 31">
<path fill-rule="evenodd"  fill="rgb(52, 52, 52)"
 d="M33.963,6.529 L33.567,9.130 L9.541,3.929 L9.936,1.329 C10.123,0.428 10.996,-0.153 11.877,0.037 L32.700,4.544 C33.581,4.735 34.149,5.629 33.963,6.529 ZM21.909,8.504 C22.785,8.256 23.700,8.785 23.943,9.682 L24.301,11.000 L32.664,12.810 L31.195,19.910 C31.008,20.811 30.135,21.392 29.254,21.201 L26.933,20.699 L27.552,22.983 C27.795,23.879 27.277,24.815 26.402,25.063 L5.701,30.939 C4.826,31.188 3.910,30.658 3.667,29.762 L0.058,16.461 C-0.185,15.565 0.333,14.629 1.209,14.381 L7.612,12.563 L8.637,7.609 L17.956,9.627 L21.909,8.504 ZM26.854,17.259 L29.273,17.782 C29.636,17.861 29.995,17.622 30.072,17.251 L30.583,14.776 C30.660,14.405 30.426,14.038 30.064,13.960 L27.644,13.436 C27.282,13.357 26.923,13.596 26.846,13.967 L26.334,16.442 C26.257,16.812 26.491,17.180 26.854,17.259 ZM4.965,29.394 C5.006,29.544 5.146,29.623 5.262,29.623 C5.288,29.623 5.315,29.619 5.341,29.612 L26.041,23.736 C26.140,23.708 26.195,23.639 26.224,23.587 C26.253,23.535 26.281,23.452 26.254,23.351 L25.447,20.378 L24.149,15.593 L2.860,21.635 L4.965,29.394 ZM7.297,14.082 L1.569,15.708 C1.409,15.753 1.312,15.930 1.356,16.093 L2.062,18.694 L23.350,12.651 L22.815,10.679 L22.644,10.050 C22.604,9.900 22.464,9.822 22.348,9.822 C22.322,9.822 22.295,9.825 22.269,9.832 L20.814,10.246 L7.297,14.082 ZM8.888,27.202 L6.471,27.888 C6.113,27.990 5.741,27.774 5.641,27.409 L4.971,24.937 C4.871,24.571 5.082,24.190 5.439,24.088 L7.857,23.402 C8.214,23.301 8.587,23.516 8.686,23.882 L9.357,26.354 C9.456,26.719 9.245,27.101 8.888,27.202 Z"/>
</svg>