<svg 
 xmlns="http://www.w3.org/2000/svg"
 xmlns:xlink="http://www.w3.org/1999/xlink"
 width="24px" height="12px" viewBox="0 0 24 12">
<path fill-rule="evenodd"  fill="rgb(10, 55, 145)"
 d="M22.840,6.408 C22.789,6.465 21.551,7.824 19.546,9.196 C16.863,11.030 14.076,12.000 11.487,12.000 C8.898,12.000 6.112,11.030 3.429,9.196 C1.423,7.824 0.186,6.465 0.134,6.408 C-0.078,6.174 -0.078,5.826 0.134,5.592 C0.186,5.535 1.423,4.176 3.429,2.804 C6.112,0.970 8.898,-0.000 11.487,-0.000 C14.076,-0.000 16.863,0.969 19.546,2.804 C21.551,4.176 22.789,5.534 22.840,5.592 C23.052,5.826 23.052,6.174 22.840,6.408 ZM18.763,3.802 C17.053,2.636 14.403,1.247 11.487,1.247 C8.572,1.247 5.921,2.636 4.211,3.802 C2.964,4.651 2.019,5.511 1.519,6.000 C2.019,6.489 2.964,7.348 4.211,8.198 C5.921,9.364 8.572,10.753 11.487,10.753 C14.403,10.753 17.053,9.364 18.763,8.198 C20.010,7.348 20.955,6.489 21.456,6.000 C20.955,5.511 20.010,4.652 18.763,3.802 ZM10.185,6.000 C10.185,5.312 10.769,4.753 11.487,4.753 C12.205,4.753 12.789,5.312 12.789,6.000 C12.789,6.688 12.205,7.247 11.487,7.247 C10.769,7.247 10.185,6.688 10.185,6.000 ZM11.487,9.866 C9.261,9.866 7.450,8.132 7.450,6.000 C7.450,3.868 9.261,2.134 11.487,2.134 C12.466,2.134 13.410,2.474 14.146,3.091 C14.417,3.318 14.444,3.712 14.207,3.971 C13.970,4.230 13.558,4.256 13.288,4.029 C12.790,3.611 12.150,3.381 11.487,3.381 C9.979,3.381 8.752,4.556 8.752,6.000 C8.752,7.444 9.979,8.619 11.487,8.619 C12.995,8.619 14.222,7.444 14.222,6.000 C14.222,5.656 14.513,5.376 14.873,5.376 C15.232,5.376 15.524,5.656 15.524,6.000 C15.524,8.132 13.713,9.866 11.487,9.866 Z"/>
</svg>