<svg 
 xmlns="http://www.w3.org/2000/svg"
 xmlns:xlink="http://www.w3.org/1999/xlink"
 width="32px" height="32px" viewBox="0 0 32 32">
<path fill-rule="evenodd"  fill="rgb(52, 52, 52)"
 d="M28.571,13.552 L28.571,30.857 C28.571,31.488 28.060,32.000 27.428,32.000 C26.797,32.000 26.286,31.488 26.286,30.857 L26.286,13.552 C24.269,13.039 22.858,11.223 22.858,9.143 C22.858,7.062 24.269,5.246 26.286,4.734 L26.286,1.143 C26.286,0.512 26.797,-0.000 27.428,-0.000 C28.060,-0.000 28.571,0.512 28.571,1.143 L28.571,4.734 C30.588,5.246 31.999,7.062 31.999,9.143 C31.999,11.223 30.588,13.039 28.571,13.552 ZM27.428,6.857 C26.166,6.857 25.143,7.881 25.143,9.143 C25.143,10.405 26.166,11.428 27.428,11.428 C28.691,11.428 29.714,10.405 29.714,9.143 C29.714,7.881 28.691,6.857 27.428,6.857 ZM17.143,27.266 L17.143,30.857 C17.143,31.488 16.631,32.000 16.000,32.000 C15.369,32.000 14.857,31.488 14.857,30.857 L14.857,27.266 C12.841,26.753 11.430,24.937 11.430,22.857 C11.430,20.777 12.841,18.961 14.857,18.448 L14.857,1.143 C14.857,0.512 15.369,-0.000 16.000,-0.000 C16.631,-0.000 17.143,0.512 17.143,1.143 L17.143,18.448 C19.159,18.961 20.570,20.777 20.570,22.857 C20.570,24.937 19.159,26.753 17.143,27.266 ZM16.000,20.571 C14.738,20.571 13.714,21.595 13.714,22.857 C13.714,24.119 14.738,25.143 16.000,25.143 C17.262,25.143 18.286,24.119 18.286,22.857 C18.286,21.595 17.262,20.571 16.000,20.571 ZM5.714,13.552 L5.714,30.857 C5.714,31.488 5.203,32.000 4.571,32.000 C3.940,32.000 3.428,31.488 3.428,30.857 L3.428,13.552 C1.412,13.039 0.001,11.223 0.001,9.143 C0.001,7.062 1.412,5.246 3.428,4.734 L3.428,1.143 C3.428,0.512 3.940,-0.000 4.571,-0.000 C5.203,-0.000 5.714,0.512 5.714,1.143 L5.714,4.734 C7.730,5.246 9.142,7.062 9.142,9.143 C9.142,11.223 7.730,13.039 5.714,13.552 ZM4.571,6.857 C3.309,6.857 2.286,7.881 2.286,9.143 C2.286,10.405 3.309,11.428 4.571,11.428 C5.834,11.428 6.857,10.405 6.857,9.143 C6.857,7.881 5.834,6.857 4.571,6.857 Z"/>
</svg>