<svg 
 xmlns="http://www.w3.org/2000/svg"
 xmlns:xlink="http://www.w3.org/1999/xlink"
 width="37px" height="37px" viewBox="0 0 37 37">
<path fill-rule="evenodd"  fill="rgb(52, 52, 52)"
 d="M35.477,20.515 C35.170,20.508 34.887,20.408 34.654,20.242 C34.262,19.965 34.011,19.502 34.022,18.984 C34.029,18.668 34.026,18.347 34.014,18.031 C33.982,17.204 34.621,16.508 35.441,16.475 C36.262,16.443 36.954,17.086 36.986,17.913 C37.001,18.290 37.004,18.673 36.996,19.050 C36.978,19.877 36.297,20.533 35.477,20.515 ZM35.117,14.680 C34.652,14.835 34.164,14.746 33.792,14.481 C33.541,14.303 33.342,14.045 33.237,13.728 C33.139,13.428 33.029,13.126 32.913,12.832 C32.607,12.064 32.979,11.192 33.741,10.885 C34.504,10.577 35.370,10.951 35.674,11.720 C35.814,12.069 35.944,12.428 36.061,12.787 C36.319,13.572 35.897,14.419 35.117,14.680 ZM31.432,7.628 L26.385,8.083 C25.819,8.134 25.620,7.792 25.943,7.321 L27.106,5.629 C21.695,1.995 14.776,2.233 9.681,5.770 C9.663,5.783 9.645,5.795 9.628,5.807 C8.182,6.821 6.884,8.099 5.813,9.631 C0.884,16.679 2.566,26.453 9.563,31.417 C10.042,31.758 10.536,32.068 11.042,32.349 C11.044,32.350 11.046,32.350 11.047,32.352 C11.323,32.503 11.607,32.647 11.892,32.783 C11.907,32.790 11.920,32.798 11.934,32.806 C13.144,33.377 14.420,33.786 15.749,34.027 C16.558,34.173 17.095,34.952 16.950,35.767 C16.805,36.581 16.033,37.123 15.224,36.976 C12.559,36.495 10.078,35.449 7.849,33.867 C6.998,33.263 6.207,32.595 5.480,31.872 C5.478,31.870 5.475,31.869 5.473,31.866 C5.467,31.860 5.460,31.853 5.454,31.847 C2.748,29.146 0.942,25.676 0.278,21.819 C0.213,21.441 0.161,21.063 0.119,20.686 C0.115,20.661 0.110,20.639 0.108,20.614 C0.067,20.239 0.038,19.858 0.021,19.482 C0.021,19.469 0.021,19.457 0.021,19.444 C-0.152,15.596 0.858,11.817 2.952,8.548 C2.966,8.524 2.978,8.500 2.994,8.476 C3.120,8.280 3.252,8.083 3.386,7.891 C3.468,7.774 3.552,7.657 3.637,7.542 C3.657,7.514 3.679,7.489 3.700,7.464 C6.238,4.047 9.794,1.652 13.870,0.598 C13.888,0.593 13.906,0.587 13.924,0.582 C13.926,0.582 13.929,0.582 13.933,0.581 C14.396,0.463 14.865,0.361 15.341,0.278 C20.068,-0.548 24.831,0.476 28.801,3.161 L29.966,1.466 C30.289,0.995 30.678,1.061 30.830,1.613 L32.185,6.532 C32.337,7.083 31.999,7.577 31.432,7.628 ZM21.314,34.014 C21.622,33.956 21.933,33.888 22.238,33.812 C23.036,33.612 23.843,34.101 24.041,34.904 C24.240,35.706 23.754,36.519 22.957,36.719 C22.594,36.811 22.223,36.892 21.855,36.960 C21.446,37.037 21.044,36.936 20.728,36.712 C20.422,36.494 20.196,36.161 20.122,35.760 C19.973,34.947 20.507,34.165 21.314,34.014 ZM27.901,25.665 C27.715,25.665 27.526,25.622 27.350,25.530 L16.385,19.820 L16.385,7.742 C16.385,7.073 16.923,6.530 17.588,6.530 C18.253,6.530 18.791,7.073 18.791,7.742 L18.791,18.344 L28.455,23.377 C29.045,23.684 29.276,24.415 28.971,25.010 C28.757,25.427 28.337,25.665 27.901,25.665 ZM26.266,32.174 C26.538,32.016 26.809,31.847 27.072,31.672 C27.757,31.216 28.679,31.406 29.132,32.097 C29.585,32.787 29.396,33.717 28.711,34.173 C28.399,34.381 28.076,34.581 27.752,34.770 C27.233,35.071 26.610,35.022 26.151,34.697 C25.980,34.575 25.832,34.416 25.721,34.221 C25.310,33.504 25.554,32.588 26.266,32.174 ZM30.912,28.030 C31.405,27.368 32.336,27.233 32.995,27.731 C33.651,28.228 33.785,29.167 33.292,29.828 C33.066,30.131 32.829,30.430 32.586,30.718 C32.083,31.312 31.220,31.413 30.598,30.972 C30.561,30.946 30.525,30.918 30.489,30.887 C29.864,30.351 29.789,29.405 30.321,28.775 C30.525,28.534 30.723,28.284 30.912,28.030 ZM33.006,24.198 C33.119,23.901 33.223,23.598 33.317,23.296 C33.563,22.507 34.397,22.067 35.181,22.315 C35.965,22.562 36.401,23.403 36.155,24.192 C36.043,24.551 35.919,24.912 35.786,25.265 C35.493,26.038 34.634,26.426 33.867,26.131 C33.748,26.086 33.638,26.026 33.538,25.956 C32.996,25.570 32.759,24.851 33.006,24.198 Z"/>
</svg>