<svg 
 xmlns="http://www.w3.org/2000/svg"
 xmlns:xlink="http://www.w3.org/1999/xlink"
 width="31px" height="43px" viewBox="0 0 31 43">
<path fill-rule="evenodd"  opacity="0.8" fill="#333333"
 d="M20.542,37.038 C21.128,37.038 21.733,37.051 21.756,37.818 C21.781,38.631 21.161,38.722 20.531,38.723 C18.833,38.724 17.136,38.723 15.438,38.723 C13.774,38.723 12.109,38.725 10.444,38.722 C9.812,38.721 9.196,38.619 9.231,37.805 C9.264,37.039 9.870,37.035 10.455,37.036 C13.817,37.043 17.180,37.044 20.542,37.038 ZM23.521,32.825 C23.453,34.119 22.419,35.227 21.233,35.236 C20.859,35.238 20.482,34.806 20.106,34.573 C20.345,34.231 20.534,33.656 20.832,33.592 C21.639,33.419 21.822,32.972 21.780,32.263 C21.736,31.513 21.840,30.732 21.666,30.017 C21.211,28.148 19.958,26.919 18.068,26.747 C16.232,26.580 14.341,26.608 12.515,26.858 C10.545,27.127 9.235,28.930 9.221,30.918 C9.200,33.791 8.987,33.519 11.777,33.519 C12.986,33.519 14.196,33.526 15.406,33.517 C16.076,33.513 16.636,33.729 16.607,34.475 C16.579,35.185 15.996,35.289 15.384,35.283 C13.652,35.268 11.919,35.293 10.187,35.274 C8.559,35.257 7.454,34.187 7.477,32.558 C7.494,31.422 7.524,30.250 7.806,29.162 C8.329,27.145 9.798,25.923 11.760,25.167 C9.769,22.084 9.959,19.502 12.256,17.550 C14.172,15.921 16.982,15.972 18.886,17.659 C20.562,19.144 21.619,22.071 19.284,25.057 C19.310,25.109 19.323,25.193 19.364,25.210 C23.414,26.898 23.674,29.914 23.521,32.825 ZM15.534,18.081 C13.656,18.058 12.087,19.608 12.078,21.494 C12.070,23.372 13.634,24.943 15.508,24.936 C17.349,24.929 18.878,23.420 18.914,21.572 C18.951,19.696 17.409,18.104 15.534,18.081 ZM26.548,42.986 C19.158,42.998 11.768,43.000 4.378,42.994 C1.832,42.992 0.013,41.119 0.007,38.460 C-0.009,31.281 0.000,24.101 0.000,16.922 C0.000,14.562 -0.002,12.201 0.003,9.841 C0.010,6.988 1.815,5.179 4.647,5.179 C5.595,5.178 6.544,5.193 7.491,5.174 C8.084,5.162 8.586,5.310 8.599,5.980 C8.613,6.690 8.089,6.906 7.468,6.911 C6.454,6.920 5.440,6.905 4.427,6.918 C2.819,6.939 1.798,7.945 1.760,9.548 C1.742,10.333 1.757,11.120 1.757,12.064 C2.215,12.064 2.566,12.064 2.918,12.064 C10.046,12.063 17.175,12.062 24.303,12.061 C24.532,12.061 24.812,11.982 24.978,12.085 C25.275,12.270 25.684,12.549 25.709,12.820 C25.735,13.100 25.423,13.523 25.143,13.690 C24.868,13.854 24.449,13.800 24.093,13.801 C17.030,13.806 9.967,13.805 2.904,13.805 C2.554,13.805 2.204,13.805 1.758,13.805 C1.758,14.191 1.758,14.477 1.758,14.763 C1.758,22.565 1.756,30.367 1.757,38.169 C1.758,40.351 2.751,41.335 4.940,41.336 C12.003,41.338 19.066,41.341 26.129,41.343 C28.186,41.343 29.235,40.313 29.235,38.289 C29.236,28.881 29.236,19.472 29.236,10.064 C29.235,7.799 28.355,6.917 26.096,6.915 C23.749,6.913 21.402,6.915 19.001,6.915 C19.001,7.493 19.001,7.965 19.001,8.415 C19.103,8.469 19.156,8.518 19.213,8.524 C19.863,8.594 20.636,8.555 20.587,9.515 C20.539,10.440 19.787,10.292 19.181,10.294 C16.729,10.300 14.276,10.300 11.824,10.293 C11.221,10.292 10.464,10.450 10.407,9.527 C10.346,8.564 11.113,8.594 11.769,8.535 C11.828,8.529 11.884,8.486 12.062,8.407 C12.062,6.569 12.057,4.677 12.063,2.785 C12.072,-0.437 11.785,0.069 14.851,0.030 C15.799,0.018 16.750,0.067 17.695,0.008 C18.663,-0.053 18.968,0.388 18.940,1.291 C18.901,2.533 18.930,3.777 18.930,5.179 C19.536,5.179 20.075,5.179 20.615,5.179 C22.577,5.179 24.539,5.175 26.501,5.180 C29.096,5.186 30.977,7.004 30.982,9.610 C31.002,19.248 30.999,28.886 30.984,38.524 C30.980,41.159 29.149,42.982 26.548,42.986 ZM17.195,1.758 C16.021,1.758 14.906,1.758 13.795,1.758 C13.795,4.048 13.795,6.255 13.795,8.511 C14.945,8.511 16.037,8.511 17.195,8.511 C17.195,6.195 17.195,3.991 17.195,1.758 Z"/>
</svg>